<svg width="189" height="28" viewBox="0 0 189 28" fill="none" xmlns="http://www.w3.org/2000/svg">
<path d="M48.9713 7.13834L42.913 20.0283H40.1692L41.8818 16.1429L37.6649 7.13834H40.648L43.8521 15.1301L42.6183 15.0749L46.1907 7.13834H48.9713ZM53.07 12.7915L52.2414 20.0283H49.4976L51.4127 6.49384L56.8081 14.8171L62.2035 6.49384L64.1186 20.0283H61.3748L60.5462 12.7915L56.8081 18.8314L53.07 12.7915ZM67.0503 14.3567V11.9813H76.5152V14.3567H67.0503ZM74.8396 7.13834H77.4728V20.0283H74.8396V7.13834ZM66.1848 7.13834H68.8181V20.0283H66.1848V7.13834ZM90.6882 7.13834H93.3583V20.0283H90.6882V7.13834ZM80.2473 7.13834H82.8805V20.0283H80.2473V7.13834ZM81.8493 14.0437V11.8156H84.4089C85.4278 11.8156 86.2933 11.9813 87.0053 12.3127C87.7296 12.6442 88.2821 13.1168 88.6626 13.7306C89.0432 14.3445 89.2335 15.0749 89.2335 15.9219C89.2335 16.7567 89.0432 17.4872 88.6626 18.1132C88.2821 18.727 87.7296 19.1997 87.0053 19.5311C86.2933 19.8626 85.4278 20.0283 84.4089 20.0283H81.8493V17.8002H84.4089C84.8754 17.8002 85.2744 17.7327 85.6058 17.5976C85.9496 17.4503 86.2135 17.2355 86.3977 16.9531C86.5818 16.6708 86.6739 16.3271 86.6739 15.9219C86.6739 15.5168 86.5818 15.1731 86.3977 14.8907C86.2135 14.6084 85.9496 14.3997 85.6058 14.2647C85.2744 14.1173 84.8754 14.0437 84.4089 14.0437H81.8493ZM107.781 9.91889L96.162 20.6728L96.254 17.2478L107.873 6.49384L107.781 9.91889ZM98.7031 7.13834V17.9291L96.162 20.6728V7.13834H98.7031ZM107.873 6.49384V20.0283H105.332V9.31122L107.873 6.49384ZM99.4949 3.19769H101.152C101.152 3.39411 101.201 3.58439 101.3 3.76853C101.398 3.95267 101.545 4.10613 101.741 4.22889C101.938 4.33937 102.183 4.39462 102.478 4.39462C102.785 4.39462 103.037 4.33937 103.233 4.22889C103.429 4.10613 103.571 3.95267 103.657 3.76853C103.755 3.58439 103.804 3.39411 103.804 3.19769H105.48C105.48 3.67646 105.363 4.1184 105.13 4.52351C104.896 4.92863 104.559 5.25395 104.117 5.49947C103.675 5.74499 103.129 5.86776 102.478 5.86776C101.84 5.86776 101.293 5.74499 100.839 5.49947C100.397 5.25395 100.06 4.92863 99.8264 4.52351C99.6054 4.1184 99.4949 3.67646 99.4949 3.19769ZM118.312 13.5833C118.312 14.4304 118.503 15.1731 118.883 15.8115C119.276 16.4375 119.785 16.9224 120.412 17.2662C121.038 17.5976 121.719 17.7634 122.456 17.7634C123.069 17.7634 123.616 17.6836 124.094 17.524C124.573 17.3644 125.003 17.1496 125.383 16.8795C125.776 16.6094 126.114 16.3148 126.396 15.9956V18.9603C125.868 19.3777 125.291 19.703 124.665 19.9362C124.051 20.1695 123.272 20.2861 122.327 20.2861C121.345 20.2861 120.43 20.1265 119.583 19.8073C118.748 19.4882 118.018 19.0278 117.392 18.4263C116.778 17.8247 116.299 17.1189 115.955 16.3086C115.624 15.4861 115.458 14.5777 115.458 13.5833C115.458 12.589 115.624 11.6867 115.955 10.8764C116.299 10.0539 116.778 9.34191 117.392 8.74038C118.018 8.13885 118.748 7.67849 119.583 7.35931C120.43 7.04013 121.345 6.88054 122.327 6.88054C123.272 6.88054 124.051 6.99716 124.665 7.23041C125.291 7.46366 125.868 7.78898 126.396 8.20637V11.1711C126.114 10.8519 125.776 10.5573 125.383 10.2872C125.003 10.0171 124.573 9.80227 124.094 9.64268C123.616 9.48309 123.069 9.40329 122.456 9.40329C121.719 9.40329 121.038 9.57516 120.412 9.91889C119.785 10.2503 119.276 10.7291 118.883 11.3552C118.503 11.9813 118.312 12.724 118.312 13.5833ZM130.71 20.0283V17.8002H137.211V20.0283H130.71ZM130.71 9.36646V7.13834H137.211V9.36646H130.71ZM130.71 14.2831V12.0918H136.842V14.2831H130.71ZM129.016 7.13834H131.557V20.0283H129.016V7.13834ZM139.806 7.13834H142.439V20.0283H139.806V7.13834ZM141.408 9.36646V7.13834H143.968C144.986 7.13834 145.852 7.30407 146.564 7.63552C147.288 7.96698 147.841 8.43961 148.221 9.05342C148.602 9.66723 148.792 10.3977 148.792 11.2447C148.792 12.0795 148.602 12.8099 148.221 13.436C147.841 14.0498 147.288 14.5225 146.564 14.8539C145.852 15.1854 144.986 15.3511 143.968 15.3511H141.408V13.123H143.968C144.667 13.123 145.22 12.9634 145.625 12.6442C146.03 12.325 146.232 11.8585 146.232 11.2447C146.232 10.6186 146.03 10.1521 145.625 9.84524C145.22 9.52605 144.667 9.36646 143.968 9.36646H141.408ZM152.8 13.4913V12.2943H154.88C155.261 12.2943 155.592 12.233 155.875 12.1102C156.157 11.9874 156.372 11.8094 156.519 11.5762C156.679 11.3429 156.759 11.0667 156.759 10.7475C156.759 10.2565 156.587 9.88206 156.243 9.62427C155.912 9.36647 155.457 9.23757 154.88 9.23757H153.463V17.9291H155.157C155.599 17.9291 155.998 17.8677 156.354 17.745C156.71 17.6099 156.986 17.4012 157.182 17.1189C157.391 16.8365 157.495 16.4744 157.495 16.0324C157.495 15.7132 157.434 15.4432 157.311 15.2222C157.201 14.989 157.035 14.7987 156.814 14.6514C156.605 14.4918 156.36 14.3813 156.077 14.3199C155.795 14.2462 155.488 14.2094 155.157 14.2094H152.8V12.7731H155.396C156.022 12.7731 156.618 12.8406 157.182 12.9757C157.759 13.1107 158.275 13.3255 158.729 13.6202C159.183 13.9025 159.539 14.2708 159.797 14.725C160.067 15.1792 160.202 15.7255 160.202 16.3639C160.202 17.2109 160 17.9045 159.594 18.4447C159.202 18.9848 158.643 19.3838 157.919 19.6416C157.194 19.8994 156.354 20.0283 155.396 20.0283H150.829V7.13834H155.12C155.979 7.13834 156.734 7.2611 157.385 7.50663C158.035 7.73987 158.545 8.09588 158.913 8.57465C159.281 9.05342 159.466 9.66109 159.466 10.3977C159.466 11.0483 159.281 11.6069 158.913 12.0734C158.545 12.5399 158.035 12.8959 157.385 13.1414C156.734 13.3746 155.979 13.4913 155.12 13.4913H152.8ZM174.065 9.91889L162.446 20.6728L162.538 17.2478L174.158 6.49384L174.065 9.91889ZM164.987 7.13834V17.9291L162.446 20.6728V7.13834H164.987ZM174.158 6.49384V20.0283H171.616V9.31122L174.158 6.49384ZM179.076 13.5833C179.076 14.4304 179.266 15.1731 179.647 15.8115C180.039 16.4375 180.549 16.9224 181.175 17.2662C181.801 17.5976 182.482 17.7634 183.219 17.7634C183.833 17.7634 184.379 17.6836 184.858 17.524C185.337 17.3644 185.766 17.1496 186.147 16.8795C186.54 16.6094 186.877 16.3148 187.16 15.9956V18.9603C186.632 19.3777 186.055 19.703 185.429 19.9362C184.815 20.1695 184.035 20.2861 183.09 20.2861C182.108 20.2861 181.193 20.1265 180.346 19.8073C179.512 19.4882 178.781 19.0278 178.155 18.4263C177.541 17.8247 177.062 17.1189 176.719 16.3086C176.387 15.4861 176.222 14.5777 176.222 13.5833C176.222 12.589 176.387 11.6867 176.719 10.8764C177.062 10.0539 177.541 9.34191 178.155 8.74038C178.781 8.13885 179.512 7.67849 180.346 7.35931C181.193 7.04013 182.108 6.88054 183.09 6.88054C184.035 6.88054 184.815 6.99716 185.429 7.23041C186.055 7.46366 186.632 7.78898 187.16 8.20637V11.1711C186.877 10.8519 186.54 10.5573 186.147 10.2872C185.766 10.0171 185.337 9.80227 184.858 9.64268C184.379 9.48309 183.833 9.40329 183.219 9.40329C182.482 9.40329 181.801 9.57516 181.175 9.91889C180.549 10.2503 180.039 10.7291 179.647 11.3552C179.266 11.9813 179.076 12.724 179.076 13.5833Z" fill="#141212"/>
<path d="M18.7361 2.61617L19.2832 1.32183C19.3445 1.17734 19.3691 1.01978 19.3547 0.863428C19.3405 0.707075 19.2877 0.556732 19.2013 0.425783C19.1148 0.294835 18.9974 0.187448 18.8594 0.113158C18.7214 0.0387881 18.5672 -8.00163e-05 18.4106 1.23676e-07H9.81543C9.67638 1.23676e-07 9.53967 0.0355823 9.41817 0.103461C9.29676 0.171339 9.19466 0.26919 9.12158 0.387797C9.04857 0.506404 9.00698 0.641761 9.0008 0.780964C8.99463 0.920167 9.02404 1.05873 9.08639 1.18335L13.7101 10.4497C13.7762 10.582 13.878 10.693 14.0042 10.7698C14.1302 10.8466 14.2754 10.8862 14.4229 10.884C14.5705 10.8817 14.7144 10.8378 14.8381 10.7573C14.9619 10.6766 15.0604 10.5627 15.1224 10.4285L18.7361 2.61617Z" fill="#141212"/>
<path d="M25.5509 6.42743L25.0382 5.52858C25.0381 5.52706 25.0381 5.52545 25.0382 5.52385C25.0222 5.49676 25.0048 5.46903 24.9874 5.44195C24.9701 5.41486 24.9621 5.40476 24.9487 5.38649C24.8669 5.28447 24.7609 5.20529 24.6406 5.15633C24.5202 5.10736 24.3896 5.09029 24.261 5.10656C24.1323 5.12291 24.0099 5.17212 23.9051 5.24961C23.8004 5.32711 23.7169 5.43033 23.6623 5.54957L22.3466 8.37459L14.8505 24.6693C14.7923 24.7955 14.7663 24.9345 14.7751 25.0736C14.7839 25.2127 14.8272 25.3473 14.9009 25.4648C14.9747 25.5824 15.0765 25.6792 15.1971 25.7462C15.3176 25.8133 15.4528 25.8484 15.5902 25.8483H21.0335C21.3153 25.8485 21.5924 25.7736 21.8366 25.631C22.0809 25.4886 22.284 25.2834 22.4254 25.0362L28.8226 13.8012C28.9637 13.5536 29.0379 13.2726 29.0379 12.9866C29.0379 12.7007 28.9637 12.4197 28.8226 12.1721L25.5509 6.42743Z" fill="#141212"/>
<path d="M9.98488 21.5025L11.1467 18.8183C11.1697 18.7647 11.1955 18.7132 11.2206 18.6609C11.3368 18.4153 11.39 18.1445 11.3752 17.8732C11.3604 17.6018 11.2782 17.3385 11.1358 17.1069L9.9158 14.7265L5.18441 5.8343C5.12158 5.7177 5.02886 5.62001 4.91579 5.55109C4.80271 5.48225 4.67328 5.44474 4.54097 5.4425C4.40858 5.44017 4.27795 5.47319 4.16255 5.53818C4.04715 5.6031 3.95114 5.69758 3.88438 5.81194L0.218624 12.1622C0.0754139 12.4104 0 12.692 0 12.9785C0 13.2651 0.0754139 13.5467 0.218624 13.7948L6.71701 25.0499C6.71925 25.0545 6.72174 25.0591 6.72446 25.0634C7.10136 25.7015 8.04629 25.6425 8.36012 24.9705L9.98488 21.5025Z" fill="#141212"/>
</svg>
