<svg width="163" height="26" viewBox="0 0 163 26" fill="none" xmlns="http://www.w3.org/2000/svg">
<path d="M42.85 7.37145L37.6701 18.3926H35.3241L36.7884 15.0705L33.1829 7.37145H35.7335L38.473 14.2045L37.4181 14.1573L40.4726 7.37145H42.85ZM46.3545 12.205L45.646 18.3926H43.3001L44.9375 6.82039L49.5506 13.9369L54.1637 6.82039L55.8012 18.3926H53.4552L52.7467 12.205L49.5506 17.3692L46.3545 12.205ZM58.3079 13.5433V11.5122H66.4005V13.5433H58.3079ZM64.9678 7.37145H67.2192V18.3926H64.9678V7.37145ZM57.5679 7.37145H59.8193V18.3926H57.5679V7.37145ZM78.5186 7.37145H80.8015V18.3926H78.5186V7.37145ZM69.5915 7.37145H71.8429V18.3926H69.5915V7.37145ZM70.9612 13.2756V11.3705H73.1497C74.0209 11.3705 74.7609 11.5122 75.3697 11.7956C75.989 12.079 76.4613 12.4832 76.7867 13.008C77.1121 13.5328 77.2748 14.1573 77.2748 14.8816C77.2748 15.5953 77.1121 16.2198 76.7867 16.7552C76.4613 17.28 75.989 17.6841 75.3697 17.9675C74.7609 18.2509 74.0209 18.3926 73.1497 18.3926H70.9612V16.4875H73.1497C73.5486 16.4875 73.8897 16.4298 74.1731 16.3143C74.467 16.1884 74.6927 16.0047 74.8501 15.7633C75.0076 15.5218 75.0863 15.2279 75.0863 14.8816C75.0863 14.5352 75.0076 14.2413 74.8501 13.9999C74.6927 13.7585 74.467 13.58 74.1731 13.4646C73.8897 13.3386 73.5486 13.2756 73.1497 13.2756H70.9612ZM93.1335 9.74886L83.1988 18.9436L83.2775 16.0152L93.2122 6.82039L93.1335 9.74886ZM85.3715 7.37145V16.5977L83.1988 18.9436V7.37145H85.3715ZM93.2122 6.82039V18.3926H91.0395V9.2293L93.2122 6.82039ZM86.0485 4.00213H87.4655C87.4655 4.17007 87.5075 4.33276 87.5915 4.49021C87.6754 4.64765 87.8014 4.77886 87.9693 4.88382C88.1373 4.97829 88.3472 5.02552 88.5991 5.02552C88.8615 5.02552 89.0767 4.97829 89.2446 4.88382C89.4126 4.77886 89.5333 4.64765 89.6068 4.49021C89.6907 4.33276 89.7327 4.17007 89.7327 4.00213H91.1655C91.1655 4.41149 91.0657 4.78935 90.8663 5.13573C90.6669 5.48211 90.3782 5.76026 90.0004 5.97019C89.6225 6.18012 89.1554 6.28508 88.5991 6.28508C88.0533 6.28508 87.5862 6.18012 87.1979 5.97019C86.82 5.76026 86.5313 5.48211 86.3319 5.13573C86.143 4.78935 86.0485 4.41149 86.0485 4.00213ZM102.138 12.882C102.138 13.6063 102.3 14.2413 102.626 14.7871C102.962 15.3224 103.397 15.737 103.933 16.0309C104.468 16.3143 105.05 16.456 105.68 16.456C106.205 16.456 106.672 16.3878 107.081 16.2513C107.491 16.1149 107.858 15.9312 108.184 15.7003C108.519 15.4694 108.808 15.2174 109.049 14.9445V17.4794C108.598 17.8363 108.105 18.1144 107.569 18.3139C107.045 18.5133 106.378 18.613 105.57 18.613C104.73 18.613 103.948 18.4765 103.224 18.2036C102.51 17.9307 101.886 17.5371 101.35 17.0228C100.826 16.5085 100.416 15.905 100.122 15.2122C99.8389 14.5089 99.6972 13.7322 99.6972 12.882C99.6972 12.0318 99.8389 11.2603 100.122 10.5676C100.416 9.86432 100.826 9.25554 101.35 8.74122C101.886 8.2269 102.51 7.83329 103.224 7.56038C103.948 7.28748 104.73 7.15102 105.57 7.15102C106.378 7.15102 107.045 7.25074 107.569 7.45017C108.105 7.6496 108.598 7.92775 109.049 8.28463V10.8195C108.808 10.5466 108.519 10.2947 108.184 10.0638C107.858 9.83283 107.491 9.64915 107.081 9.5127C106.672 9.37624 106.205 9.30802 105.68 9.30802C105.05 9.30802 104.468 9.45497 103.933 9.74886C103.397 10.0323 102.962 10.4416 102.626 10.9769C102.3 11.5122 102.138 12.1473 102.138 12.882ZM112.738 18.3926V16.4875H118.296V18.3926H112.738ZM112.738 9.27653V7.37145H118.296V9.27653H112.738ZM112.738 13.4803V11.6067H117.981V13.4803H112.738ZM111.29 7.37145H113.462V18.3926H111.29V7.37145ZM120.515 7.37145H122.766V18.3926H120.515V7.37145ZM121.885 9.27653V7.37145H124.073C124.944 7.37145 125.684 7.51315 126.293 7.79655C126.913 8.07995 127.385 8.48406 127.71 9.00887C128.036 9.53369 128.198 10.1582 128.198 10.8825C128.198 11.5962 128.036 12.2207 127.71 12.7561C127.385 13.2809 126.913 13.685 126.293 13.9684C125.684 14.2518 124.944 14.3935 124.073 14.3935H121.885V12.4884H124.073C124.672 12.4884 125.144 12.3519 125.49 12.079C125.837 11.8061 126.01 11.4073 126.01 10.8825C126.01 10.3472 125.837 9.94829 125.49 9.68588C125.144 9.41298 124.672 9.27653 124.073 9.27653H121.885ZM131.625 12.8033V11.7799H133.404C133.729 11.7799 134.013 11.7274 134.254 11.6225C134.496 11.5175 134.679 11.3653 134.805 11.1659C134.942 10.9664 135.01 10.7303 135.01 10.4574C135.01 10.0375 134.863 9.71737 134.569 9.49695C134.286 9.27653 133.897 9.16632 133.404 9.16632H132.192V16.5977H133.64C134.018 16.5977 134.359 16.5452 134.663 16.4403C134.968 16.3248 135.204 16.1464 135.372 15.905C135.55 15.6635 135.64 15.3539 135.64 14.976C135.64 14.7031 135.587 14.4722 135.482 14.2833C135.388 14.0838 135.246 13.9211 135.057 13.7952C134.879 13.6587 134.669 13.5643 134.427 13.5118C134.186 13.4488 133.924 13.4173 133.64 13.4173H131.625V12.1893H133.845C134.38 12.1893 134.889 12.247 135.372 12.3624C135.865 12.4779 136.306 12.6616 136.695 12.9135C137.083 13.1549 137.387 13.4698 137.608 13.8582C137.839 14.2465 137.954 14.7136 137.954 15.2594C137.954 15.9837 137.781 16.5767 137.435 17.0386C137.099 17.5004 136.621 17.8415 136.002 18.0619C135.382 18.2824 134.663 18.3926 133.845 18.3926H129.94V7.37145H133.609C134.343 7.37145 134.989 7.47641 135.545 7.68634C136.101 7.88577 136.537 8.19016 136.852 8.59952C137.167 9.00887 137.324 9.52844 137.324 10.1582C137.324 10.7145 137.167 11.1921 136.852 11.591C136.537 11.9898 136.101 12.2942 135.545 12.5041C134.989 12.7036 134.343 12.8033 133.609 12.8033H131.625ZM149.807 9.74886L139.873 18.9436L139.951 16.0152L149.886 6.82039L149.807 9.74886ZM142.045 7.37145V16.5977L139.873 18.9436V7.37145H142.045ZM149.886 6.82039V18.3926H147.713V9.2293L149.886 6.82039ZM154.091 12.882C154.091 13.6063 154.254 14.2413 154.579 14.7871C154.915 15.3224 155.351 15.737 155.886 16.0309C156.421 16.3143 157.004 16.456 157.634 16.456C158.159 16.456 158.626 16.3878 159.035 16.2513C159.444 16.1149 159.812 15.9312 160.137 15.7003C160.473 15.4694 160.762 15.2174 161.003 14.9445V17.4794C160.552 17.8363 160.058 18.1144 159.523 18.3139C158.998 18.5133 158.332 18.613 157.524 18.613C156.684 18.613 155.902 18.4765 155.178 18.2036C154.464 17.9307 153.839 17.5371 153.304 17.0228C152.779 16.5085 152.37 15.905 152.076 15.2122C151.793 14.5089 151.651 13.7322 151.651 12.882C151.651 12.0318 151.793 11.2603 152.076 10.5676C152.37 9.86432 152.779 9.25554 153.304 8.74122C153.839 8.2269 154.464 7.83329 155.178 7.56038C155.902 7.28748 156.684 7.15102 157.524 7.15102C158.332 7.15102 158.998 7.25074 159.523 7.45017C160.058 7.6496 160.552 7.92775 161.003 8.28463V10.8195C160.762 10.5466 160.473 10.2947 160.137 10.0638C159.812 9.83283 159.444 9.64915 159.035 9.5127C158.626 9.37624 158.159 9.30802 157.634 9.30802C157.004 9.30802 156.421 9.45497 155.886 9.74886C155.351 10.0323 154.915 10.4416 154.579 10.9769C154.254 11.5122 154.091 12.1473 154.091 12.882Z" fill="url(#paint0_linear_304_5181)"/>
<mask id="mask0_304_5181" style="mask-type:alpha" maskUnits="userSpaceOnUse" x="1" y="1" width="25" height="23">
<path d="M17.0919 3.89447L17.5605 2.78757C17.6129 2.66399 17.634 2.52933 17.6217 2.39562C17.6095 2.2619 17.5643 2.13331 17.4903 2.02134C17.4163 1.90937 17.3157 1.81751 17.1975 1.75397C17.0793 1.69043 16.9473 1.65719 16.8131 1.65723H9.45222C9.33316 1.6572 9.21606 1.68765 9.11206 1.74569C9.00807 1.80374 8.92063 1.88744 8.85806 1.98885C8.79549 2.09026 8.75988 2.206 8.75459 2.32507C8.74931 2.44414 8.77454 2.56258 8.82788 2.66914L12.7877 10.5933C12.8442 10.7064 12.9315 10.8013 13.0395 10.867C13.1475 10.9327 13.2718 10.9666 13.3981 10.9647C13.5245 10.9628 13.6477 10.9252 13.7537 10.8563C13.8597 10.7874 13.9441 10.6899 13.9972 10.5751L17.0919 3.89447Z" fill="url(#paint1_linear_304_5181)"/>
<path d="M22.933 7.15514L22.4939 6.38653C22.4938 6.38518 22.4938 6.38383 22.4939 6.38248C22.4802 6.35933 22.4653 6.3356 22.4505 6.31245C22.4356 6.2893 22.4287 6.28062 22.4173 6.26499C22.3472 6.1778 22.2564 6.11008 22.1534 6.0682C22.0503 6.02633 21.9385 6.01168 21.8283 6.02563C21.7181 6.03958 21.6132 6.08167 21.5236 6.14794C21.4339 6.21422 21.3623 6.3025 21.3156 6.40447L20.1888 8.82026L13.7692 22.7547C13.7193 22.8626 13.697 22.9815 13.7046 23.1005C13.7121 23.2194 13.7492 23.3344 13.8124 23.435C13.8755 23.5355 13.9627 23.6183 14.0659 23.6756C14.1691 23.733 14.2849 23.763 14.4026 23.7629H19.0643C19.3057 23.7631 19.5429 23.6991 19.7521 23.5772C19.9613 23.4553 20.1352 23.2798 20.2563 23.0684L25.7349 13.4608C25.8556 13.2491 25.9192 13.0088 25.9192 12.7643C25.9192 12.5197 25.8556 12.2795 25.7349 12.0677L22.933 7.15514Z" fill="url(#paint2_linear_304_5181)"/>
<path d="M9.60187 20.0451L10.5968 17.7497C10.6166 17.7039 10.6386 17.6598 10.6601 17.6151C10.7597 17.4051 10.8052 17.1736 10.7925 16.9415C10.7798 16.7095 10.7094 16.4842 10.5876 16.2862L9.54265 14.2505L5.49074 6.64642C5.43693 6.54673 5.35752 6.46315 5.26067 6.40427C5.16382 6.34539 5.05301 6.31332 4.93964 6.31137C4.82627 6.30943 4.71443 6.33766 4.61561 6.39318C4.51678 6.4487 4.43454 6.52951 4.37733 6.62728L1.23797 12.0577C1.11534 12.27 1.05078 12.5107 1.05078 12.7558C1.05078 13.0009 1.11534 13.2416 1.23797 13.4539L6.80326 23.0786C6.80516 23.0826 6.80729 23.0865 6.80964 23.0902C7.1324 23.6358 7.94163 23.5854 8.2104 23.0108L9.60187 20.0451Z" fill="url(#paint3_linear_304_5181)"/>
</mask>
<g mask="url(#mask0_304_5181)">
<path d="M19.1861 1.65591C19.688 1.65586 20.1517 1.92355 20.4027 2.35815L25.9889 12.0314C26.2398 12.466 26.2399 13.0015 25.989 13.4361L20.4048 23.1105C20.1539 23.5451 19.6902 23.8129 19.1883 23.813L8.01796 23.8141C7.51611 23.8141 7.05235 23.5464 6.80138 23.1119L1.21523 13.4386C0.964263 13.004 0.964209 12.4685 1.21509 12.0339L6.79932 2.3595C7.0502 1.92486 7.51391 1.65707 8.01576 1.65702L19.1861 1.65591Z" fill="url(#paint4_linear_304_5181)"/>
</g>
<defs>
<linearGradient id="paint0_linear_304_5181" x1="88.3916" y1="-20.9375" x2="85.0799" y2="24.3819" gradientUnits="userSpaceOnUse">
<stop stop-color="#81F8BF"/>
<stop offset="0.245901" stop-color="#60F8D6"/>
<stop offset="0.428554" stop-color="#45F8EA"/>
<stop offset="0.551996" stop-color="#3AE5ED"/>
<stop offset="0.701676" stop-color="#30D5F1"/>
<stop offset="0.864851" stop-color="#19AEFA"/>
<stop offset="1" stop-color="#0B95FF"/>
</linearGradient>
<linearGradient id="paint1_linear_304_5181" x1="16.9994" y1="9.7514" x2="11.2272" y2="-0.921043" gradientUnits="userSpaceOnUse">
<stop stop-color="#83FFB1"/>
<stop offset="0.42" stop-color="#2FE0FE"/>
<stop offset="0.89" stop-color="#00BAF4"/>
</linearGradient>
<linearGradient id="paint2_linear_304_5181" x1="22.5528" y1="22.9579" x2="14.3263" y2="7.91804" gradientUnits="userSpaceOnUse">
<stop stop-color="#83FFB1"/>
<stop offset="0.42" stop-color="#2FE0FE"/>
<stop offset="0.89" stop-color="#00BAF4"/>
</linearGradient>
<linearGradient id="paint3_linear_304_5181" x1="10.3966" y1="23.0496" x2="1.10326" y2="5.82937" gradientUnits="userSpaceOnUse">
<stop stop-color="#83FFB1"/>
<stop offset="0.42" stop-color="#2FE0FE"/>
<stop offset="0.89" stop-color="#00BAF4"/>
</linearGradient>
<linearGradient id="paint4_linear_304_5181" x1="11.6196" y1="-4.73926" x2="6.98982" y2="20.962" gradientUnits="userSpaceOnUse">
<stop stop-color="#81F8BF"/>
<stop offset="0.245901" stop-color="#60F8D6"/>
<stop offset="0.428554" stop-color="#45F8EA"/>
<stop offset="0.551996" stop-color="#3AE5ED"/>
<stop offset="0.701676" stop-color="#30D5F1"/>
<stop offset="0.864851" stop-color="#19AEFA"/>
<stop offset="1" stop-color="#0B95FF"/>
</linearGradient>
</defs>
</svg>
